<svg width="50" height="50" viewBox="0 0 50 50" fill="none" xmlns="http://www.w3.org/2000/svg" xmlns:xlink="http://www.w3.org/1999/xlink">
<path d="M41.081,38.521L48.16,45.597C48.49,45.939 48.673,46.397 48.669,46.872C48.665,47.347 48.474,47.802 48.138,48.138C47.802,48.474 47.347,48.665 46.872,48.669C46.397,48.673 45.939,48.49 45.597,48.16L38.518,41.08C33.891,45.044 27.91,47.062 21.828,46.71C15.745,46.359 10.036,43.665 5.897,39.195C1.758,34.724 -0.488,28.825 -0.371,22.734C-0.254,16.643 2.218,10.834 6.526,6.526C10.834,2.218 16.643,-0.254 22.734,-0.371C28.825,-0.488 34.725,1.758 39.195,5.897C43.665,10.036 46.359,15.745 46.711,21.827C47.062,27.909 45.044,33.891 41.081,38.518L41.081,38.521ZM23.188,43.125C28.475,43.125 33.547,41.024 37.286,37.285C41.025,33.546 43.125,28.475 43.125,23.187C43.125,17.9 41.025,12.829 37.286,9.09C33.547,5.351 28.475,3.25 23.188,3.25C17.9,3.25 12.829,5.351 9.09,9.09C5.351,12.829 3.25,17.9 3.25,23.187C3.25,28.475 5.351,33.546 9.09,37.285C12.829,41.024 17.9,43.125 23.188,43.125Z" fill="#007BFF"/>
</svg>
