<svg width="40" height="30" viewBox="0 0 40 30" fill="none" xmlns="http://www.w3.org/2000/svg" xmlns:xlink="http://www.w3.org/1999/xlink">
<path d="M15.161,9.701L25.964,15.282L15.161,20.929L15.161,9.701ZM19.29,28.943C21.79,28.943 24.205,28.909 26.533,28.842C28.862,28.775 30.57,28.705 31.656,28.63L33.286,28.541C33.301,28.541 33.427,28.53 33.665,28.507C33.903,28.485 34.074,28.463 34.179,28.44C34.283,28.418 34.458,28.385 34.703,28.34C34.949,28.295 35.161,28.236 35.339,28.161C35.518,28.087 35.726,27.99 35.964,27.871C36.202,27.752 36.433,27.607 36.656,27.436C36.879,27.265 37.095,27.068 37.304,26.844C37.393,26.755 37.508,26.617 37.649,26.431C37.791,26.245 38.007,25.81 38.297,25.126C38.587,24.441 38.784,23.69 38.888,22.871C39.007,21.919 39.1,20.903 39.167,19.824C39.234,18.745 39.275,17.901 39.29,17.291L39.29,16.398L39.29,13.362C39.305,11.204 39.171,9.047 38.888,6.889C38.784,6.07 38.598,5.33 38.33,4.668C38.062,4.006 37.824,3.548 37.616,3.295L37.304,2.916C37.095,2.693 36.879,2.495 36.656,2.324C36.433,2.153 36.202,2.012 35.964,1.9C35.726,1.788 35.518,1.695 35.339,1.621C35.161,1.547 34.949,1.487 34.703,1.443C34.458,1.398 34.279,1.364 34.167,1.342C34.056,1.32 33.885,1.297 33.654,1.275C33.423,1.253 33.301,1.242 33.286,1.242C29.551,0.959 24.885,0.818 19.29,0.818C16.21,0.847 13.535,0.896 11.266,0.963C8.996,1.03 7.504,1.085 6.79,1.13L5.696,1.219L4.893,1.309C4.357,1.383 3.952,1.457 3.676,1.532C3.401,1.606 3.021,1.762 2.538,2.001C2.054,2.239 1.634,2.544 1.277,2.916C1.187,3.005 1.072,3.143 0.931,3.329C0.789,3.515 0.574,3.95 0.283,4.634C-0.007,5.319 -0.204,6.07 -0.308,6.889C-0.427,7.841 -0.52,8.857 -0.587,9.936C-0.654,11.015 -0.695,11.859 -0.71,12.469L-0.71,13.362L-0.71,16.398C-0.725,18.556 -0.591,20.713 -0.308,22.871C-0.204,23.69 -0.018,24.43 0.25,25.092C0.518,25.754 0.756,26.212 0.964,26.465L1.277,26.844C1.485,27.068 1.701,27.265 1.924,27.436C2.147,27.607 2.378,27.752 2.616,27.871C2.854,27.99 3.062,28.087 3.241,28.161C3.42,28.236 3.632,28.295 3.877,28.34C4.123,28.385 4.298,28.418 4.402,28.44C4.506,28.463 4.677,28.485 4.915,28.507C5.153,28.53 5.28,28.541 5.295,28.541C9.03,28.809 13.695,28.943 19.29,28.943Z" fill="#E1F9EC"/>
</svg>
