<svg width="36" height="30" viewBox="0 0 36 30" fill="none" xmlns="http://www.w3.org/2000/svg" xmlns:xlink="http://www.w3.org/1999/xlink">
<path d="M34.556,25.772C33.559,24.314 32.353,23.071 30.94,22.045C30.955,21.836 30.962,21.524 30.962,21.107C30.962,19.173 30.679,17.242 30.114,15.315C29.549,13.388 28.689,11.539 27.536,9.769C26.383,7.998 25.01,6.432 23.418,5.07C21.826,3.709 19.906,2.623 17.66,1.812C15.413,1.001 13.01,0.595 10.45,0.595C6.418,0.595 2.728,1.674 -0.62,3.832C-0.099,3.772 0.481,3.742 1.121,3.742C4.469,3.742 7.452,4.769 10.071,6.823C8.509,6.852 7.11,7.332 5.875,8.262C4.64,9.192 3.792,10.379 3.33,11.822C3.822,11.748 4.275,11.711 4.692,11.711C5.332,11.711 5.964,11.792 6.589,11.956C4.923,12.298 3.543,13.128 2.449,14.445C1.355,15.762 0.808,17.29 0.808,19.031L0.808,19.121C1.82,18.555 2.906,18.25 4.067,18.206C3.085,18.86 2.304,19.716 1.723,20.772C1.143,21.829 0.853,22.975 0.853,24.21C0.853,25.519 1.18,26.732 1.835,27.848C3.636,25.631 5.827,23.856 8.408,22.524C10.99,21.193 13.754,20.452 16.7,20.304C16.581,20.869 16.521,21.42 16.521,21.955C16.521,23.949 17.224,25.649 18.631,27.055C20.037,28.462 21.737,29.165 23.731,29.165C25.814,29.165 27.57,28.406 28.998,26.888C30.62,27.2 32.145,27.781 33.574,28.629C33.023,26.918 31.967,25.593 30.404,24.656C31.788,24.805 33.172,25.177 34.556,25.772Z" fill="#E1F9EC"/>
</svg>
