<svg width="16" height="32" viewBox="0 0 16 32" fill="none" xmlns="http://www.w3.org/2000/svg" xmlns:xlink="http://www.w3.org/1999/xlink">
<path d="M14.536,30.5L14.536,25.786L11.732,25.786C10.708,25.786 10.018,25.571 9.661,25.143C9.304,24.714 9.125,24.071 9.125,23.214L9.125,19.839L14.357,19.839L13.661,14.554L9.125,14.554L9.125,1L3.661,1L3.661,14.554L-0.893,14.554L-0.893,19.839L3.661,19.839L3.661,23.732C3.661,25.946 4.28,27.664 5.518,28.884C6.756,30.104 8.405,30.714 10.464,30.714C12.214,30.714 13.571,30.643 14.536,30.5Z" fill="#FFFFFF"/>
</svg>
