<svg width="32" height="24" viewBox="0 0 32 24" fill="none" xmlns="http://www.w3.org/2000/svg" xmlns:xlink="http://www.w3.org/1999/xlink">
<path d="M12.267,6.857L20.909,11.321L12.267,15.839L12.267,6.857ZM15.57,22.25C17.57,22.25 19.502,22.223 21.365,22.17C23.228,22.116 24.594,22.06 25.463,22L26.767,21.929C26.778,21.929 26.88,21.92 27.07,21.902C27.261,21.884 27.397,21.866 27.481,21.848C27.564,21.83 27.704,21.804 27.9,21.768C28.097,21.732 28.267,21.685 28.409,21.625C28.552,21.565 28.719,21.488 28.909,21.393C29.1,21.298 29.284,21.182 29.463,21.045C29.642,20.908 29.814,20.75 29.981,20.571C30.052,20.5 30.145,20.39 30.258,20.241C30.371,20.092 30.543,19.744 30.775,19.196C31.008,18.649 31.165,18.048 31.249,17.393C31.344,16.631 31.418,15.818 31.472,14.955C31.525,14.092 31.558,13.417 31.57,12.929L31.57,12.214L31.57,9.786C31.582,8.06 31.475,6.333 31.249,4.607C31.165,3.952 31.017,3.36 30.802,2.83C30.588,2.301 30.397,1.935 30.231,1.732L29.981,1.429C29.814,1.25 29.642,1.092 29.463,0.955C29.284,0.818 29.1,0.705 28.909,0.616C28.719,0.527 28.552,0.452 28.409,0.393C28.267,0.333 28.097,0.286 27.9,0.25C27.704,0.214 27.561,0.187 27.472,0.17C27.383,0.152 27.246,0.134 27.061,0.116C26.877,0.098 26.778,0.089 26.767,0.089C23.778,-0.137 20.046,-0.25 15.57,-0.25C13.106,-0.226 10.966,-0.188 9.15,-0.134C7.335,-0.08 6.142,-0.036 5.57,0L4.695,0.071L4.052,0.143C3.624,0.202 3.299,0.262 3.079,0.321C2.859,0.381 2.555,0.506 2.168,0.696C1.781,0.887 1.445,1.131 1.159,1.429C1.088,1.5 0.996,1.61 0.883,1.759C0.77,1.908 0.597,2.256 0.365,2.804C0.133,3.351 -0.025,3.952 -0.108,4.607C-0.204,5.369 -0.278,6.182 -0.332,7.045C-0.385,7.908 -0.418,8.583 -0.43,9.071L-0.43,9.786L-0.43,12.214C-0.442,13.94 -0.335,15.667 -0.108,17.393C-0.025,18.048 0.124,18.64 0.338,19.17C0.552,19.699 0.743,20.065 0.909,20.268L1.159,20.571C1.326,20.75 1.499,20.908 1.677,21.045C1.856,21.182 2.04,21.298 2.231,21.393C2.421,21.488 2.588,21.565 2.731,21.625C2.874,21.685 3.043,21.732 3.24,21.768C3.436,21.804 3.576,21.83 3.659,21.848C3.743,21.866 3.88,21.884 4.07,21.902C4.261,21.92 4.362,21.929 4.374,21.929C7.362,22.143 11.094,22.25 15.57,22.25Z" transform="rotate(0 15.57 11)" fill="#FFFFFF"/>
</svg>
