<svg width="40" height="28" viewBox="0 0 40 28" fill="none" xmlns="http://www.w3.org/2000/svg" xmlns:xlink="http://www.w3.org/1999/xlink">
<path d="M15.161,8.142L25.964,13.722L15.161,19.369L15.161,8.142ZM19.29,27.383C21.79,27.383 24.205,27.349 26.533,27.282C28.862,27.215 30.57,27.145 31.656,27.07L33.286,26.981C33.301,26.981 33.427,26.97 33.665,26.948C33.903,26.925 34.074,26.903 34.179,26.881C34.283,26.858 34.458,26.825 34.703,26.78C34.949,26.735 35.161,26.676 35.339,26.602C35.518,26.527 35.726,26.43 35.964,26.311C36.202,26.192 36.433,26.047 36.656,25.876C36.879,25.705 37.095,25.508 37.304,25.285C37.393,25.195 37.508,25.058 37.649,24.872C37.791,24.686 38.007,24.25 38.297,23.566C38.587,22.881 38.784,22.13 38.888,21.311C39.007,20.359 39.1,19.343 39.167,18.265C39.234,17.186 39.275,16.341 39.29,15.731L39.29,14.838L39.29,11.802C39.305,9.645 39.171,7.487 38.888,5.329C38.784,4.511 38.598,3.77 38.33,3.108C38.062,2.446 37.824,1.988 37.616,1.735L37.304,1.356C37.095,1.133 36.879,0.936 36.656,0.765C36.433,0.593 36.202,0.452 35.964,0.34C35.726,0.229 35.518,0.136 35.339,0.061C35.161,-0.013 34.949,-0.073 34.703,-0.117C34.458,-0.162 34.279,-0.195 34.167,-0.218C34.056,-0.24 33.885,-0.262 33.654,-0.285C33.423,-0.307 33.301,-0.318 33.286,-0.318C29.551,-0.601 24.885,-0.742 19.29,-0.742C16.21,-0.712 13.535,-0.664 11.266,-0.597C8.996,-0.53 7.504,-0.474 6.79,-0.43L5.696,-0.34L4.893,-0.251C4.357,-0.177 3.952,-0.102 3.676,-0.028C3.401,0.047 3.021,0.203 2.538,0.441C2.054,0.679 1.634,0.984 1.277,1.356C1.187,1.445 1.072,1.583 0.931,1.769C0.789,1.955 0.574,2.39 0.283,3.075C-0.007,3.759 -0.204,4.511 -0.308,5.329C-0.427,6.282 -0.52,7.297 -0.587,8.376C-0.654,9.455 -0.695,10.299 -0.71,10.91L-0.71,11.802L-0.71,14.838C-0.725,16.996 -0.591,19.154 -0.308,21.311C-0.204,22.13 -0.018,22.87 0.25,23.532C0.518,24.195 0.756,24.652 0.964,24.905L1.277,25.285C1.485,25.508 1.701,25.705 1.924,25.876C2.147,26.047 2.378,26.192 2.616,26.311C2.854,26.43 3.062,26.527 3.241,26.602C3.42,26.676 3.632,26.735 3.877,26.78C4.123,26.825 4.298,26.858 4.402,26.881C4.506,26.903 4.677,26.925 4.915,26.948C5.153,26.97 5.28,26.981 5.295,26.981C9.03,27.249 13.695,27.383 19.29,27.383Z" fill="#E1F9EC"/>
</svg>
