<svg width="62" height="80" viewBox="0 0 62 80" fill="none" xmlns="http://www.w3.org/2000/svg" xmlns:xlink="http://www.w3.org/1999/xlink">
<path d="M58.71,-0.285L10.375,-0.285C7.616,-0.285 5.26,0.691 3.308,2.643C1.356,4.595 0.38,6.951 0.38,9.71L0.38,69.68C0.38,72.491 1.655,74.86 4.206,76.786C6.757,78.712 9.36,79.675 12.015,79.675L56.992,79.675C57.461,79.675 57.864,79.519 58.203,79.206C58.541,78.894 58.71,78.504 58.71,78.035C58.71,77.567 58.541,77.176 58.203,76.864C57.864,76.552 57.461,76.395 56.992,76.395L12.015,76.395C10.141,76.395 8.293,75.732 6.471,74.404C4.649,73.077 3.738,71.502 3.738,69.68L3.738,66.4C3.738,64.578 4.649,63.004 6.471,61.676C8.293,60.349 10.141,59.685 12.015,59.685L58.71,59.685C59.127,59.685 59.504,59.529 59.843,59.216C60.181,58.904 60.35,58.514 60.35,58.045L60.35,1.433C60.35,0.964 60.181,0.561 59.843,0.222C59.504,-0.116 59.127,-0.285 58.71,-0.285ZM3.738,59.685L3.738,9.71C3.738,7.888 4.388,6.326 5.69,5.025C6.991,3.723 8.553,3.073 10.375,3.073L56.992,3.073L56.992,56.405L12.015,56.405C10.609,56.405 9.165,56.692 7.681,57.264C6.197,57.837 4.883,58.644 3.738,59.685ZM53.713,66.4L10.375,66.4C9.907,66.4 9.516,66.557 9.204,66.869C8.891,67.181 8.735,67.572 8.735,68.04C8.735,68.509 8.891,68.899 9.204,69.211C9.516,69.524 9.907,69.68 10.375,69.68L53.713,69.68C54.129,69.68 54.507,69.524 54.845,69.211C55.183,68.899 55.353,68.509 55.353,68.04C55.353,67.572 55.183,67.181 54.845,66.869C54.507,66.557 54.129,66.4 53.713,66.4Z" fill="#FFFFFF"/>
</svg>
