<svg width="18" height="34" viewBox="0 0 18 34" fill="none" xmlns="http://www.w3.org/2000/svg" xmlns:xlink="http://www.w3.org/1999/xlink">
<path d="M17.431,32.848L17.431,27.544L14.277,27.544C13.126,27.544 12.349,27.303 11.947,26.821C11.545,26.339 11.344,25.616 11.344,24.651L11.344,20.854L17.231,20.854L16.447,14.908L11.344,14.908L11.344,-0.34L5.197,-0.34L5.197,14.908L0.074,14.908L0.074,20.854L5.197,20.854L5.197,25.234C5.197,27.725 5.893,29.657 7.286,31.03C8.679,32.402 10.534,33.089 12.851,33.089C14.82,33.089 16.347,33.008 17.431,32.848Z" fill="#FAA634"/>
</svg>
