<svg width="36" height="36" viewBox="0 0 36 36" fill="none" xmlns="http://www.w3.org/2000/svg" xmlns:xlink="http://www.w3.org/1999/xlink">
<path d="M21.69,13.28C21.69,13.28 21.969,13.559 22.527,14.117C23.085,14.675 23.364,15.743 23.364,17.321C23.364,18.898 22.806,20.245 21.69,21.361C20.574,22.477 19.227,23.035 17.65,23.035C16.073,23.035 14.726,22.477 13.61,21.361C12.494,20.245 11.936,18.898 11.936,17.321C11.936,15.743 12.494,14.396 13.61,13.28C14.726,12.164 16.073,11.606 17.65,11.606C19.227,11.606 20.574,12.164 21.69,13.28ZM23.878,23.548C23.878,23.548 24.306,23.12 25.161,22.265C26.017,21.409 26.445,19.761 26.445,17.321C26.445,14.88 25.589,12.804 23.878,11.093C22.166,9.382 20.091,8.526 17.65,8.526C15.21,8.526 13.134,9.382 11.422,11.093C9.711,12.804 8.855,14.88 8.855,17.321C8.855,19.761 9.711,21.837 11.422,23.548C13.134,25.259 15.21,26.115 17.65,26.115C20.091,26.115 22.166,25.259 23.878,23.548ZM28.253,27.923C28.253,27.923 28.353,27.823 28.554,27.622C28.755,27.421 28.855,27.038 28.855,26.472C28.855,25.907 28.655,25.423 28.253,25.021C27.851,24.62 27.367,24.419 26.802,24.419C26.236,24.419 25.753,24.62 25.351,25.021C24.949,25.423 24.748,25.907 24.748,26.472C24.748,27.038 24.949,27.521 25.351,27.923C25.753,28.325 26.236,28.526 26.802,28.526C27.367,28.526 27.851,28.325 28.253,27.923ZM19.358,31.394C19.358,31.394 19.099,31.392 18.582,31.389C18.065,31.385 17.754,31.383 17.65,31.383C17.546,31.383 16.977,31.387 15.942,31.394C14.908,31.402 14.123,31.402 13.588,31.394C13.052,31.387 12.334,31.364 11.434,31.327C10.533,31.29 9.767,31.216 9.134,31.104C8.502,30.992 7.97,30.855 7.538,30.691C6.794,30.393 6.14,29.962 5.574,29.396C5.009,28.831 4.577,28.176 4.28,27.432C4.116,27.001 3.978,26.469 3.867,25.836C3.755,25.204 3.681,24.437 3.643,23.537C3.606,22.637 3.584,21.919 3.576,21.383C3.569,20.847 3.569,20.062 3.576,19.028C3.584,17.994 3.588,17.425 3.588,17.321C3.588,17.216 3.584,16.647 3.576,15.613C3.569,14.579 3.569,13.794 3.576,13.258C3.584,12.722 3.606,12.004 3.643,11.104C3.681,10.204 3.755,9.437 3.867,8.805C3.978,8.172 4.116,7.64 4.28,7.209C4.577,6.465 5.009,5.81 5.574,5.245C6.14,4.679 6.794,4.248 7.538,3.95C7.97,3.786 8.502,3.649 9.134,3.537C9.767,3.425 10.533,3.351 11.434,3.314C12.334,3.277 13.052,3.254 13.588,3.247C14.123,3.239 14.908,3.239 15.942,3.247C16.977,3.254 17.546,3.258 17.65,3.258C17.754,3.258 18.323,3.254 19.358,3.247C20.392,3.239 21.177,3.239 21.713,3.247C22.248,3.254 22.966,3.277 23.867,3.314C24.767,3.351 25.533,3.425 26.166,3.537C26.798,3.649 27.33,3.786 27.762,3.95C28.506,4.248 29.16,4.679 29.726,5.245C30.291,5.81 30.723,6.465 31.021,7.209C31.184,7.64 31.322,8.172 31.434,8.805C31.545,9.437 31.62,10.204 31.657,11.104C31.694,12.004 31.716,12.722 31.724,13.258C31.731,13.794 31.731,14.579 31.724,15.613C31.716,16.647 31.713,17.216 31.713,17.321C31.713,17.425 31.716,17.994 31.724,19.028C31.731,20.062 31.731,20.847 31.724,21.383C31.716,21.919 31.694,22.637 31.657,23.537C31.62,24.437 31.545,25.204 31.434,25.836C31.322,26.469 31.184,27.001 31.021,27.432C30.723,28.176 30.291,28.831 29.726,29.396C29.16,29.962 28.506,30.393 27.762,30.691C27.33,30.855 26.798,30.992 26.166,31.104C25.533,31.216 24.767,31.29 23.867,31.327C22.966,31.364 22.248,31.387 21.713,31.394C21.177,31.402 20.392,31.402 19.358,31.394ZM34.681,24.396C34.756,23.087 34.793,20.728 34.793,17.321C34.793,13.913 34.756,11.554 34.681,10.245C34.532,7.149 33.61,4.754 31.913,3.057C30.217,1.361 27.821,0.438 24.726,0.289C23.416,0.215 21.058,0.178 17.65,0.178C14.242,0.178 11.884,0.215 10.574,0.289C7.479,0.438 5.083,1.361 3.387,3.057C1.69,4.754 0.768,7.149 0.619,10.245C0.544,11.554 0.507,13.913 0.507,17.321C0.507,20.728 0.544,23.087 0.619,24.396C0.768,27.492 1.69,29.887 3.387,31.584C5.083,33.28 7.479,34.203 10.574,34.352C11.884,34.426 14.242,34.463 17.65,34.463C21.058,34.463 23.416,34.426 24.726,34.352C27.821,34.203 30.217,33.28 31.913,31.584C33.61,29.887 34.532,27.492 34.681,24.396Z" fill="#E1F9EC"/>
</svg>
