<svg width="32" height="32" viewBox="0 0 32 32" fill="none" xmlns="http://www.w3.org/2000/svg" xmlns:xlink="http://www.w3.org/1999/xlink">
<path d="M19.976,12.024C19.976,12.024 20.227,12.275 20.729,12.777C21.232,13.28 21.483,14.241 21.483,15.66C21.483,17.08 20.981,18.292 19.976,19.296C18.972,20.301 17.76,20.803 16.34,20.803C14.92,20.803 13.708,20.301 12.704,19.296C11.699,18.292 11.197,17.08 11.197,15.66C11.197,14.241 11.699,13.029 12.704,12.024C13.708,11.02 14.92,10.517 16.34,10.517C17.76,10.517 18.972,11.02 19.976,12.024ZM21.945,21.265C21.945,21.265 22.33,20.88 23.1,20.11C23.87,19.34 24.255,17.857 24.255,15.66C24.255,13.464 23.485,11.596 21.945,10.055C20.405,8.515 18.536,7.745 16.34,7.745C14.144,7.745 12.275,8.515 10.735,10.055C9.195,11.596 8.425,13.464 8.425,15.66C8.425,17.857 9.195,19.725 10.735,21.265C12.275,22.805 14.144,23.576 16.34,23.576C18.536,23.576 20.405,22.805 21.945,21.265ZM25.882,25.203C25.882,25.203 25.973,25.112 26.154,24.932C26.334,24.751 26.425,24.406 26.425,23.897C26.425,23.388 26.244,22.953 25.882,22.591C25.521,22.23 25.086,22.049 24.577,22.049C24.068,22.049 23.632,22.23 23.271,22.591C22.909,22.953 22.728,23.388 22.728,23.897C22.728,24.406 22.909,24.841 23.271,25.203C23.632,25.564 24.068,25.745 24.577,25.745C25.086,25.745 25.521,25.564 25.882,25.203ZM17.877,28.327C17.877,28.327 17.644,28.325 17.179,28.322C16.713,28.318 16.434,28.317 16.34,28.317C16.246,28.317 15.734,28.32 14.803,28.327C13.872,28.333 13.166,28.333 12.684,28.327C12.202,28.32 11.555,28.3 10.745,28.266C9.935,28.233 9.245,28.166 8.676,28.066C8.107,27.965 7.628,27.841 7.24,27.694C6.57,27.426 5.981,27.038 5.472,26.529C4.963,26.02 4.574,25.43 4.306,24.761C4.159,24.372 4.035,23.894 3.935,23.324C3.834,22.755 3.767,22.066 3.734,21.255C3.7,20.445 3.68,19.799 3.674,19.317C3.667,18.834 3.667,18.128 3.674,17.197C3.68,16.266 3.684,15.754 3.684,15.66C3.684,15.567 3.68,15.054 3.674,14.123C3.667,13.193 3.667,12.486 3.674,12.004C3.68,11.522 3.7,10.876 3.734,10.065C3.767,9.255 3.834,8.565 3.935,7.996C4.035,7.427 4.159,6.948 4.306,6.56C4.574,5.89 4.963,5.301 5.472,4.792C5.981,4.283 6.57,3.895 7.24,3.627C7.628,3.479 8.107,3.356 8.676,3.255C9.245,3.155 9.935,3.088 10.745,3.054C11.555,3.021 12.202,3.001 12.684,2.994C13.166,2.987 13.872,2.987 14.803,2.994C15.734,3.001 16.246,3.004 16.34,3.004C16.434,3.004 16.946,3.001 17.877,2.994C18.808,2.987 19.514,2.987 19.996,2.994C20.478,3.001 21.125,3.021 21.935,3.054C22.745,3.088 23.435,3.155 24.004,3.255C24.573,3.356 25.052,3.479 25.44,3.627C26.11,3.895 26.699,4.283 27.208,4.792C27.717,5.301 28.106,5.89 28.373,6.56C28.521,6.948 28.645,7.427 28.745,7.996C28.846,8.565 28.913,9.255 28.946,10.065C28.979,10.876 29,11.522 29.006,12.004C29.013,12.486 29.013,13.193 29.006,14.123C29,15.054 28.996,15.567 28.996,15.66C28.996,15.754 29,16.266 29.006,17.197C29.013,18.128 29.013,18.834 29.006,19.317C29,19.799 28.979,20.445 28.946,21.255C28.913,22.066 28.846,22.755 28.745,23.324C28.645,23.894 28.521,24.372 28.373,24.761C28.106,25.43 27.717,26.02 27.208,26.529C26.699,27.038 26.11,27.426 25.44,27.694C25.052,27.841 24.573,27.965 24.004,28.066C23.435,28.166 22.745,28.233 21.935,28.266C21.125,28.3 20.478,28.32 19.996,28.327C19.514,28.333 18.808,28.333 17.877,28.327ZM31.668,22.029C31.735,20.85 31.769,18.727 31.769,15.66C31.769,12.593 31.735,10.471 31.668,9.292C31.534,6.506 30.704,4.35 29.177,2.823C27.65,1.296 25.494,0.466 22.708,0.332C21.53,0.265 19.407,0.232 16.34,0.232C13.273,0.232 11.15,0.265 9.972,0.332C7.186,0.466 5.03,1.296 3.503,2.823C1.976,4.35 1.146,6.506 1.012,9.292C0.945,10.471 0.911,12.593 0.911,15.66C0.911,18.727 0.945,20.85 1.012,22.029C1.146,24.814 1.976,26.971 3.503,28.497C5.03,30.024 7.186,30.855 9.972,30.988C11.15,31.055 13.273,31.089 16.34,31.089C19.407,31.089 21.53,31.055 22.708,30.988C25.494,30.855 27.65,30.024 29.177,28.497C30.704,26.971 31.534,24.814 31.668,22.029Z" fill="#FAA634"/>
</svg>
