<svg width="82" height="80" viewBox="0 0 82 80" fill="none" xmlns="http://www.w3.org/2000/svg" xmlns:xlink="http://www.w3.org/1999/xlink">
<path d="M53.713,65.84L27.085,65.84C26.617,65.84 26.213,65.997 25.875,66.309C25.537,66.621 25.368,67.012 25.368,67.48C25.368,67.949 25.537,68.339 25.875,68.651C26.213,68.964 26.617,69.12 27.085,69.12L53.713,69.12C54.181,69.12 54.572,68.964 54.884,68.651C55.196,68.339 55.353,67.949 55.353,67.48C55.353,67.012 55.196,66.621 54.884,66.309C54.572,65.997 54.181,65.84 53.713,65.84ZM59.804,13.132C59.699,13.132 59.582,13.145 59.452,13.171C59.322,13.197 59.179,13.262 59.023,13.366C58.658,13.575 58.398,13.887 58.242,14.303C58.086,14.72 58.112,15.136 58.32,15.553L73.078,44.913C73.286,45.33 73.599,45.603 74.015,45.733C74.432,45.863 74.848,45.824 75.265,45.616C75.681,45.408 75.967,45.095 76.124,44.679C76.28,44.263 76.254,43.846 76.045,43.43L61.287,14.069C61.131,13.809 60.923,13.588 60.662,13.406C60.402,13.223 60.116,13.132 59.804,13.132ZM20.292,14.46C19.98,14.46 19.68,14.538 19.394,14.694C19.108,14.85 18.886,15.058 18.73,15.319L4.753,43.43C4.545,43.846 4.519,44.263 4.675,44.679C4.831,45.095 5.117,45.408 5.534,45.616C5.95,45.824 6.367,45.863 6.783,45.733C7.2,45.603 7.512,45.33 7.72,44.913L21.776,16.802C21.984,16.438 22.01,16.034 21.854,15.592C21.698,15.149 21.411,14.824 20.995,14.616C20.891,14.564 20.773,14.525 20.643,14.499C20.513,14.473 20.396,14.46 20.292,14.46ZM38.72,15.865L38.252,15.865C35.024,15.865 32.174,17.063 29.701,19.457C27.229,21.852 25.81,24.741 25.446,28.125C23.988,28.593 22.778,29.595 21.815,31.131C20.852,32.667 20.37,34.242 20.37,35.855L20.37,39.135C20.37,40.228 20.695,41.204 21.346,42.063C21.997,42.922 22.791,43.534 23.728,43.898L23.728,48.115C23.728,51.03 24.47,53.386 25.953,55.182C27.437,56.978 29.376,57.902 31.771,57.954C32.239,58.11 32.708,58.279 33.176,58.461C33.645,58.643 34.113,58.813 34.582,58.969C36.352,59.646 38.122,60.27 39.892,60.843C41.662,61.415 43.379,61.702 45.045,61.702C47.908,61.702 50.069,60.648 51.526,58.539C52.984,56.431 53.713,53.295 53.713,49.13L53.713,43.508C54.39,43.143 55.118,42.584 55.899,41.829C56.68,41.074 57.071,40.176 57.071,39.135L57.071,35.855C57.071,34.346 56.524,32.797 55.431,31.209C54.338,29.621 53.01,28.567 51.448,28.047C51.136,24.715 49.73,21.852 47.232,19.457C44.733,17.063 41.896,15.865 38.72,15.865ZM45.045,58.344C43.692,58.344 42.208,58.084 40.594,57.563C38.981,57.043 37.367,56.496 35.753,55.923C35.232,55.715 34.699,55.507 34.152,55.299C33.606,55.09 33.098,54.908 32.63,54.752C32.525,54.7 32.434,54.674 32.356,54.674C32.278,54.674 32.187,54.674 32.083,54.674C30.209,54.674 28.907,53.984 28.179,52.605C27.45,51.225 27.085,49.729 27.085,48.115L27.085,42.493C27.085,42.024 26.916,41.634 26.578,41.321C26.24,41.009 25.836,40.853 25.368,40.853C24.951,40.853 24.574,40.684 24.235,40.345C23.897,40.007 23.728,39.603 23.728,39.135L23.728,35.855C23.728,34.814 24.079,33.773 24.782,32.732C25.485,31.691 26.253,31.17 27.085,31.17C27.554,31.17 27.944,31.001 28.257,30.663C28.569,30.324 28.725,29.947 28.725,29.53C28.725,26.771 29.675,24.351 31.575,22.268C33.476,20.186 35.701,19.145 38.252,19.145L38.72,19.145C41.271,19.145 43.497,20.186 45.397,22.268C47.297,24.351 48.247,26.771 48.247,29.53C48.247,29.947 48.403,30.324 48.715,30.663C49.028,31.001 49.418,31.17 49.887,31.17C50.72,31.17 51.565,31.691 52.424,32.732C53.283,33.773 53.713,34.814 53.713,35.855L53.713,39.135C53.661,39.343 53.387,39.642 52.893,40.033C52.398,40.423 51.891,40.723 51.37,40.931C51.058,41.087 50.811,41.308 50.628,41.595C50.446,41.881 50.355,42.18 50.355,42.493L50.355,49.13C50.355,53.763 49.665,56.457 48.286,57.212C46.906,57.967 45.826,58.344 45.045,58.344ZM67.222,-0.845L10.375,-0.845C9.959,-0.845 9.581,-0.676 9.243,-0.338C8.904,0.001 8.735,0.404 8.735,0.873C8.735,3.476 9.204,5.896 10.141,8.135C11.078,10.373 12.379,12.299 14.045,13.913C15.711,15.527 17.663,16.802 19.902,17.739C22.14,18.676 24.587,19.145 27.242,19.145C27.71,19.145 28.101,18.989 28.413,18.676C28.725,18.364 28.881,17.974 28.881,17.505C28.881,17.037 28.725,16.646 28.413,16.334C28.101,16.021 27.71,15.865 27.242,15.865C23.129,15.865 19.68,14.616 16.895,12.117C14.11,9.618 12.535,6.417 12.171,2.512L65.504,2.512C65.087,6.417 63.487,9.618 60.702,12.117C57.916,14.616 54.494,15.865 50.433,15.865C49.965,15.865 49.561,16.021 49.223,16.334C48.885,16.646 48.715,17.037 48.715,17.505C48.715,17.974 48.885,18.364 49.223,18.676C49.561,18.989 49.965,19.145 50.433,19.145C53.036,19.145 55.47,18.676 57.734,17.739C59.999,16.802 61.951,15.527 63.591,13.913C65.231,12.299 66.519,10.373 67.456,8.135C68.393,5.896 68.862,3.476 68.862,0.873C68.862,0.404 68.705,0.001 68.393,-0.338C68.081,-0.676 67.69,-0.845 67.222,-0.845ZM17.09,75.835C18.912,75.835 20.474,75.185 21.776,73.883C23.077,72.582 23.728,70.994 23.728,69.12C23.728,67.298 23.077,64.63 21.776,61.116C20.474,57.602 18.912,55.845 17.09,55.845C15.216,55.845 13.629,57.602 12.327,61.116C11.026,64.63 10.375,67.298 10.375,69.12C10.375,70.994 11.026,72.582 12.327,73.883C13.629,75.185 15.216,75.835 17.09,75.835ZM17.09,79.115C14.331,79.115 11.976,78.139 10.024,76.187C8.071,74.235 7.095,71.879 7.095,69.12C7.095,68.183 7.291,66.777 7.681,64.903C8.071,63.029 8.683,61.181 9.516,59.359C10.349,57.537 11.39,55.936 12.64,54.557C13.889,53.177 15.373,52.488 17.09,52.488C18.808,52.488 20.292,53.177 21.541,54.557C22.791,55.936 23.832,57.537 24.665,59.359C25.498,61.181 26.109,63.029 26.5,64.903C26.89,66.777 27.085,68.183 27.085,69.12C27.085,71.879 26.109,74.235 24.157,76.187C22.205,78.139 19.849,79.115 17.09,79.115ZM2.02,44.132C1.603,44.132 1.226,44.302 0.888,44.64C0.549,44.978 0.38,45.382 0.38,45.85C0.38,48.557 1.356,50.9 3.308,52.878C5.26,54.856 7.616,55.845 10.375,55.845L13.733,55.845C14.201,55.845 14.592,55.676 14.904,55.338C15.216,54.999 15.373,54.596 15.373,54.127C15.373,53.659 15.216,53.268 14.904,52.956C14.592,52.644 14.201,52.488 13.733,52.488L10.375,52.488C8.553,52.488 6.991,51.837 5.69,50.535C4.388,49.234 3.738,47.672 3.738,45.85C3.738,45.382 3.569,44.978 3.23,44.64C2.892,44.302 2.488,44.132 2.02,44.132ZM0.38,45.85L17.09,45.85L17.09,42.493L0.38,42.493L0.38,45.85ZM63.708,75.835C65.53,75.835 67.092,75.185 68.393,73.883C69.694,72.582 70.345,70.994 70.345,69.12C70.345,67.298 69.694,64.63 68.393,61.116C67.092,57.602 65.53,55.845 63.708,55.845C61.886,55.845 60.324,57.602 59.023,61.116C57.721,64.63 57.071,67.298 57.071,69.12C57.071,70.994 57.721,72.582 59.023,73.883C60.324,75.185 61.886,75.835 63.708,75.835ZM63.708,79.115C60.949,79.115 58.593,78.139 56.641,76.187C54.689,74.235 53.713,71.879 53.713,69.12C53.713,68.183 53.908,66.777 54.298,64.903C54.689,63.029 55.301,61.181 56.133,59.359C56.966,57.537 58.008,55.936 59.257,54.557C60.506,53.177 61.99,52.488 63.708,52.488C65.426,52.488 66.909,53.177 68.159,54.557C69.408,55.936 70.449,57.537 71.282,59.359C72.115,61.181 72.727,63.029 73.117,64.903C73.508,66.777 73.703,68.183 73.703,69.12C73.703,71.879 72.727,74.235 70.775,76.187C68.822,78.139 66.467,79.115 63.708,79.115ZM78.857,44.132C78.388,44.132 77.985,44.302 77.646,44.64C77.308,44.978 77.139,45.382 77.139,45.85C77.139,47.672 76.475,49.234 75.147,50.535C73.82,51.837 72.245,52.488 70.423,52.488L67.066,52.488C66.597,52.488 66.207,52.644 65.894,52.956C65.582,53.268 65.426,53.659 65.426,54.127C65.426,54.596 65.582,54.999 65.894,55.338C66.207,55.676 66.597,55.845 67.066,55.845L70.423,55.845C73.182,55.845 75.551,54.856 77.529,52.878C79.507,50.9 80.496,48.557 80.496,45.85C80.496,45.382 80.327,44.978 79.989,44.64C79.65,44.302 79.273,44.132 78.857,44.132ZM63.708,45.85L80.34,45.85L80.34,42.493L63.708,42.493L63.708,45.85Z" fill="#FFFFFF"/>
</svg>
