<svg width="28" height="14" viewBox="0 0 28 14" fill="none" xmlns="http://www.w3.org/2000/svg" xmlns:xlink="http://www.w3.org/1999/xlink">
<path d="M26.35,7.045C26.35,6.899 26.298,6.774 26.193,6.67L20.193,1.138C20.027,0.993 19.844,0.961 19.646,1.045C19.449,1.138 19.35,1.289 19.35,1.498L19.35,4.998L-0.15,4.998C-0.296,4.998 -0.416,5.045 -0.51,5.138C-0.604,5.232 -0.65,5.352 -0.65,5.498L-0.65,8.498C-0.65,8.644 -0.604,8.763 -0.51,8.857C-0.416,8.951 -0.296,8.998 -0.15,8.998L19.35,8.998L19.35,12.498C19.35,12.717 19.449,12.868 19.646,12.951C19.844,13.034 20.027,13.008 20.193,12.873L26.193,7.404C26.298,7.3 26.35,7.18 26.35,7.045Z" fill="#FFFFFF"/>
</svg>
