<svg width="30" height="28" viewBox="0 0 30 28" fill="none" xmlns="http://www.w3.org/2000/svg" xmlns:xlink="http://www.w3.org/1999/xlink">
<path d="M17.902,9.768C17.902,9.768 18.125,9.991 18.572,10.437C19.018,10.884 19.241,11.738 19.241,13C19.241,14.262 18.795,15.339 17.902,16.232C17.009,17.125 15.932,17.571 14.67,17.571C13.408,17.571 12.331,17.125 11.438,16.232C10.545,15.339 10.099,14.262 10.099,13C10.099,11.738 10.545,10.661 11.438,9.768C12.331,8.875 13.408,8.429 14.67,8.429C15.932,8.429 17.009,8.875 17.902,9.768ZM19.652,17.982C19.652,17.982 19.994,17.64 20.679,16.955C21.363,16.271 21.706,14.952 21.706,13C21.706,11.048 21.021,9.387 19.652,8.018C18.283,6.649 16.622,5.964 14.67,5.964C12.718,5.964 11.057,6.649 9.688,8.018C8.319,9.387 7.634,11.048 7.634,13C7.634,14.952 8.319,16.613 9.688,17.982C11.057,19.351 12.718,20.036 14.67,20.036C16.622,20.036 18.283,19.351 19.652,17.982ZM23.152,21.482C23.152,21.482 23.232,21.402 23.393,21.241C23.554,21.08 23.634,20.774 23.634,20.321C23.634,19.869 23.473,19.482 23.152,19.161C22.831,18.839 22.444,18.679 21.991,18.679C21.539,18.679 21.152,18.839 20.831,19.161C20.509,19.482 20.349,19.869 20.349,20.321C20.349,20.774 20.509,21.161 20.831,21.482C21.152,21.803 21.539,21.964 21.991,21.964C22.444,21.964 22.831,21.803 23.152,21.482ZM16.036,24.259C16.036,24.259 15.829,24.257 15.416,24.254C15.002,24.251 14.753,24.25 14.67,24.25C14.587,24.25 14.131,24.253 13.304,24.259C12.477,24.265 11.849,24.265 11.42,24.259C10.991,24.253 10.417,24.235 9.697,24.205C8.977,24.175 8.363,24.116 7.857,24.027C7.352,23.937 6.926,23.827 6.581,23.696C5.985,23.458 5.462,23.113 5.009,22.661C4.557,22.208 4.212,21.684 3.974,21.089C3.843,20.744 3.732,20.318 3.643,19.812C3.554,19.306 3.494,18.693 3.465,17.973C3.435,17.253 3.417,16.679 3.411,16.25C3.405,15.821 3.405,15.193 3.411,14.366C3.417,13.539 3.42,13.083 3.42,13C3.42,12.917 3.417,12.461 3.411,11.634C3.405,10.806 3.405,10.179 3.411,9.75C3.417,9.321 3.435,8.747 3.465,8.027C3.494,7.306 3.554,6.693 3.643,6.187C3.732,5.681 3.843,5.256 3.974,4.911C4.212,4.315 4.557,3.792 5.009,3.339C5.462,2.887 5.985,2.542 6.581,2.304C6.926,2.173 7.352,2.062 7.857,1.973C8.363,1.884 8.977,1.824 9.697,1.795C10.417,1.765 10.991,1.747 11.42,1.741C11.849,1.735 12.477,1.735 13.304,1.741C14.131,1.747 14.587,1.75 14.67,1.75C14.753,1.75 15.209,1.747 16.036,1.741C16.863,1.735 17.491,1.735 17.92,1.741C18.349,1.747 18.923,1.765 19.643,1.795C20.363,1.824 20.976,1.884 21.482,1.973C21.988,2.062 22.414,2.173 22.759,2.304C23.354,2.542 23.878,2.887 24.331,3.339C24.783,3.792 25.128,4.315 25.366,4.911C25.497,5.256 25.607,5.681 25.697,6.187C25.786,6.693 25.845,7.306 25.875,8.027C25.905,8.747 25.923,9.321 25.929,9.75C25.935,10.179 25.935,10.806 25.929,11.634C25.923,12.461 25.92,12.917 25.92,13C25.92,13.083 25.923,13.539 25.929,14.366C25.935,15.193 25.935,15.821 25.929,16.25C25.923,16.679 25.905,17.253 25.875,17.973C25.845,18.693 25.786,19.306 25.697,19.812C25.607,20.318 25.497,20.744 25.366,21.089C25.128,21.684 24.783,22.208 24.331,22.661C23.878,23.113 23.354,23.458 22.759,23.696C22.414,23.827 21.988,23.937 21.482,24.027C20.976,24.116 20.363,24.175 19.643,24.205C18.923,24.235 18.349,24.253 17.92,24.259C17.491,24.265 16.863,24.265 16.036,24.259ZM28.295,18.661C28.354,17.613 28.384,15.726 28.384,13C28.384,10.274 28.354,8.387 28.295,7.339C28.176,4.863 27.438,2.946 26.081,1.589C24.723,0.232 22.807,-0.506 20.331,-0.625C19.283,-0.685 17.396,-0.714 14.67,-0.714C11.944,-0.714 10.057,-0.685 9.009,-0.625C6.533,-0.506 4.616,0.232 3.259,1.589C1.902,2.946 1.164,4.863 1.045,7.339C0.985,8.387 0.956,10.274 0.956,13C0.956,15.726 0.985,17.613 1.045,18.661C1.164,21.137 1.902,23.053 3.259,24.411C4.616,25.768 6.533,26.506 9.009,26.625C10.057,26.684 11.944,26.714 14.67,26.714C17.396,26.714 19.283,26.684 20.331,26.625C22.807,26.506 24.723,25.768 26.081,24.411C27.438,23.053 28.176,21.137 28.295,18.661Z" fill="#FFFFFF"/>
</svg>
