<svg width="20" height="40" viewBox="0 0 20 40" fill="none" xmlns="http://www.w3.org/2000/svg" xmlns:xlink="http://www.w3.org/1999/xlink">
<path d="M19.007,37.755L19.007,31.862L15.503,31.862C14.223,31.862 13.36,31.594 12.913,31.058C12.467,30.523 12.244,29.719 12.244,28.648L12.244,24.429L18.784,24.429L17.913,17.822L12.244,17.822L12.244,0.88L5.413,0.88L5.413,17.822L-0.279,17.822L-0.279,24.429L5.413,24.429L5.413,29.295C5.413,32.063 6.187,34.209 7.735,35.735C9.282,37.26 11.343,38.023 13.918,38.023C16.105,38.023 17.802,37.933 19.007,37.755Z" fill="#E1F9EC"/>
</svg>
