<svg width="30" height="24" viewBox="0 0 30 24" fill="none" xmlns="http://www.w3.org/2000/svg" xmlns:xlink="http://www.w3.org/1999/xlink">
<path d="M28.156,19.714C27.358,18.548 26.394,17.554 25.263,16.732C25.275,16.565 25.281,16.315 25.281,15.982C25.281,14.435 25.054,12.89 24.602,11.348C24.15,9.807 23.462,8.327 22.54,6.911C21.617,5.494 20.519,4.241 19.245,3.152C17.971,2.063 16.435,1.193 14.638,0.545C12.84,-0.104 10.918,-0.429 8.87,-0.429C5.644,-0.429 2.691,0.435 0.013,2.161C0.43,2.113 0.894,2.089 1.406,2.089C4.084,2.089 6.471,2.911 8.566,4.554C7.316,4.577 6.197,4.961 5.209,5.705C4.221,6.449 3.543,7.399 3.174,8.554C3.566,8.494 3.93,8.464 4.263,8.464C4.775,8.464 5.281,8.53 5.781,8.661C4.447,8.935 3.343,9.598 2.468,10.652C1.593,11.705 1.156,12.929 1.156,14.321L1.156,14.393C1.965,13.94 2.834,13.696 3.763,13.661C2.977,14.185 2.352,14.869 1.888,15.714C1.424,16.56 1.191,17.476 1.191,18.464C1.191,19.512 1.453,20.482 1.977,21.375C3.418,19.601 5.171,18.182 7.236,17.116C9.302,16.051 11.513,15.458 13.87,15.339C13.775,15.792 13.727,16.232 13.727,16.661C13.727,18.256 14.29,19.616 15.415,20.741C16.54,21.866 17.9,22.429 19.495,22.429C21.162,22.429 22.566,21.821 23.709,20.607C25.007,20.857 26.227,21.321 27.37,22C26.929,20.631 26.084,19.571 24.834,18.821C25.941,18.94 27.049,19.238 28.156,19.714Z" fill="#FFFFFF"/>
</svg>
