<svg width="36" height="34" viewBox="0 0 36 34" fill="none" xmlns="http://www.w3.org/2000/svg" xmlns:xlink="http://www.w3.org/1999/xlink">
<path d="M7.577,22.304L7.577,0.184L0.211,0.184L0.211,22.304L7.577,22.304ZM8.046,29.134C8.061,28.048 7.685,27.14 6.919,26.411C6.152,25.682 5.144,25.318 3.894,25.318L3.85,25.318C2.629,25.318 1.647,25.682 0.903,26.411C0.159,27.14 -0.213,28.048 -0.213,29.134C-0.213,30.236 0.17,31.147 0.937,31.869C1.703,32.591 2.704,32.951 3.939,32.951C5.174,32.951 6.164,32.591 6.908,31.869C7.652,31.147 8.031,30.236 8.046,29.134ZM34.073,12.862L34.073,0.184L26.729,0.184L26.729,12.014C26.729,13.576 26.428,14.8 25.825,15.686C25.222,16.571 24.281,17.014 23.001,17.014C22.064,17.014 21.279,16.757 20.647,16.244C20.014,15.73 19.542,15.094 19.229,14.335C19.065,13.889 18.984,13.286 18.984,12.527L18.984,0.184L11.64,0.184C11.67,6.121 11.684,10.935 11.684,14.626C11.684,18.316 11.677,20.518 11.662,21.233L11.64,22.304L18.984,22.304L18.984,19.09L18.939,19.09C19.237,19.566 19.542,19.983 19.854,20.34C20.167,20.697 20.587,21.084 21.115,21.501C21.644,21.917 22.291,22.241 23.057,22.472C23.824,22.702 24.676,22.818 25.613,22.818C28.158,22.818 30.204,21.973 31.751,20.284C33.299,18.595 34.073,16.121 34.073,12.862Z" fill="#E1F9EC"/>
</svg>
