<svg width="36" height="36" viewBox="0 0 36 36" fill="none" xmlns="http://www.w3.org/2000/svg" xmlns:xlink="http://www.w3.org/1999/xlink">
<path d="M21.69,12.84C21.69,12.84 21.969,13.119 22.527,13.677C23.085,14.235 23.364,15.302 23.364,16.88C23.364,18.457 22.806,19.804 21.69,20.92C20.574,22.036 19.227,22.594 17.65,22.594C16.073,22.594 14.726,22.036 13.61,20.92C12.494,19.804 11.936,18.457 11.936,16.88C11.936,15.302 12.494,13.956 13.61,12.84C14.726,11.724 16.073,11.166 17.65,11.166C19.227,11.166 20.574,11.724 21.69,12.84ZM23.878,23.108C23.878,23.108 24.305,22.68 25.161,21.824C26.017,20.968 26.444,19.32 26.444,16.88C26.444,14.439 25.589,12.363 23.878,10.652C22.166,8.941 20.09,8.085 17.65,8.085C15.209,8.085 13.134,8.941 11.422,10.652C9.711,12.363 8.855,14.439 8.855,16.88C8.855,19.32 9.711,21.396 11.422,23.108C13.134,24.819 15.209,25.674 17.65,25.674C20.09,25.674 22.166,24.819 23.878,23.108ZM28.253,27.483C28.253,27.483 28.353,27.382 28.554,27.181C28.755,26.98 28.855,26.597 28.855,26.032C28.855,25.466 28.654,24.983 28.253,24.581C27.851,24.179 27.367,23.978 26.802,23.978C26.236,23.978 25.753,24.179 25.351,24.581C24.949,24.983 24.748,25.466 24.748,26.032C24.748,26.597 24.949,27.081 25.351,27.483C25.753,27.884 26.236,28.085 26.802,28.085C27.367,28.085 27.851,27.884 28.253,27.483ZM19.358,30.954C19.358,30.954 19.099,30.952 18.582,30.948C18.065,30.944 17.754,30.942 17.65,30.942C17.546,30.942 16.977,30.946 15.942,30.954C14.908,30.961 14.123,30.961 13.587,30.954C13.052,30.946 12.334,30.924 11.433,30.887C10.533,30.849 9.767,30.775 9.134,30.663C8.502,30.552 7.97,30.414 7.538,30.25C6.794,29.953 6.14,29.521 5.574,28.956C5.009,28.39 4.577,27.736 4.279,26.991C4.116,26.56 3.978,26.028 3.866,25.395C3.755,24.763 3.68,23.997 3.643,23.096C3.606,22.196 3.584,21.478 3.576,20.942C3.569,20.407 3.569,19.622 3.576,18.587C3.584,17.553 3.587,16.984 3.587,16.88C3.587,16.776 3.584,16.206 3.576,15.172C3.569,14.138 3.569,13.353 3.576,12.817C3.584,12.282 3.606,11.564 3.643,10.663C3.68,9.763 3.755,8.997 3.866,8.364C3.978,7.732 4.116,7.2 4.279,6.768C4.577,6.024 5.009,5.369 5.574,4.804C6.14,4.238 6.794,3.807 7.538,3.509C7.97,3.346 8.502,3.208 9.134,3.096C9.767,2.985 10.533,2.91 11.433,2.873C12.334,2.836 13.052,2.814 13.587,2.806C14.123,2.799 14.908,2.799 15.942,2.806C16.977,2.814 17.546,2.817 17.65,2.817C17.754,2.817 18.323,2.814 19.358,2.806C20.392,2.799 21.177,2.799 21.712,2.806C22.248,2.814 22.966,2.836 23.866,2.873C24.767,2.91 25.533,2.985 26.165,3.096C26.798,3.208 27.33,3.346 27.761,3.509C28.506,3.807 29.16,4.238 29.726,4.804C30.291,5.369 30.723,6.024 31.02,6.768C31.184,7.2 31.322,7.732 31.433,8.364C31.545,8.997 31.619,9.763 31.657,10.663C31.694,11.564 31.716,12.282 31.724,12.817C31.731,13.353 31.731,14.138 31.724,15.172C31.716,16.206 31.712,16.776 31.712,16.88C31.712,16.984 31.716,17.553 31.724,18.587C31.731,19.622 31.731,20.407 31.724,20.942C31.716,21.478 31.694,22.196 31.657,23.096C31.619,23.997 31.545,24.763 31.433,25.395C31.322,26.028 31.184,26.56 31.02,26.991C30.723,27.736 30.291,28.39 29.726,28.956C29.16,29.521 28.506,29.953 27.761,30.25C27.33,30.414 26.798,30.552 26.165,30.663C25.533,30.775 24.767,30.849 23.866,30.887C22.966,30.924 22.248,30.946 21.712,30.954C21.177,30.961 20.392,30.961 19.358,30.954ZM34.681,23.956C34.756,22.646 34.793,20.288 34.793,16.88C34.793,13.472 34.756,11.113 34.681,9.804C34.532,6.709 33.61,4.313 31.913,2.616C30.217,0.92 27.821,-0.003 24.726,-0.151C23.416,-0.226 21.058,-0.263 17.65,-0.263C14.242,-0.263 11.884,-0.226 10.574,-0.151C7.479,-0.003 5.083,0.92 3.387,2.616C1.69,4.313 0.767,6.709 0.619,9.804C0.544,11.113 0.507,13.472 0.507,16.88C0.507,20.288 0.544,22.646 0.619,23.956C0.767,27.051 1.69,29.447 3.387,31.143C5.083,32.84 7.479,33.762 10.574,33.911C11.884,33.986 14.242,34.023 17.65,34.023C21.058,34.023 23.416,33.986 24.726,33.911C27.821,33.762 30.217,32.84 31.913,31.143C33.61,29.447 34.532,27.051 34.681,23.956Z" fill="#E1F9EC"/>
</svg>
