<svg width="42" height="40" viewBox="0 0 42 40" fill="none" xmlns="http://www.w3.org/2000/svg" xmlns:xlink="http://www.w3.org/1999/xlink">
<path d="M39.654,2.361L31.256,10.758C32.454,12.243 33.391,13.909 34.068,15.758C34.745,17.607 35.084,19.56 35.084,21.617C35.084,24.013 34.628,26.265 33.717,28.374C32.805,30.484 31.562,32.326 29.987,33.901C28.411,35.477 26.569,36.72 24.46,37.631C22.35,38.543 20.111,38.999 17.741,38.999C15.346,38.999 13.093,38.543 10.984,37.631C8.875,36.72 7.033,35.477 5.457,33.901C3.882,32.326 2.638,30.484 1.727,28.374C0.816,26.265 0.36,24.013 0.36,21.617C0.36,19.247 0.816,17.008 1.727,14.899C2.638,12.789 3.882,10.947 5.457,9.372C7.033,7.796 8.875,6.553 10.984,5.642C13.093,4.73 15.346,4.274 17.741,4.274C19.773,4.274 21.706,4.606 23.542,5.27C25.378,5.934 27.025,6.852 28.483,8.024L28.444,7.985L36.881,-0.413C37.063,-0.595 37.271,-0.738 37.506,-0.842C37.74,-0.947 37.987,-0.999 38.248,-0.999C38.795,-0.999 39.263,-0.803 39.654,-0.413C40.044,-0.022 40.24,0.434 40.24,0.954C40.24,1.241 40.188,1.501 40.084,1.736C39.979,1.97 39.836,2.178 39.654,2.361ZM4.305,21.617C4.305,23.492 4.656,25.237 5.36,26.851C6.063,28.491 7.02,29.917 8.23,31.128C9.441,32.339 10.867,33.296 12.507,33.999C14.122,34.702 15.867,35.054 17.741,35.054C19.59,35.054 21.322,34.702 22.936,33.999C24.577,33.296 26.003,32.339 27.213,31.128C28.424,29.917 29.381,28.491 30.084,26.851C30.813,25.237 31.178,23.492 31.178,21.617C31.178,19.768 30.813,18.036 30.084,16.422C29.381,14.782 28.424,13.356 27.213,12.145C26.003,10.934 24.577,9.977 22.936,9.274C21.322,8.545 19.59,8.18 17.741,8.18C15.867,8.18 14.122,8.545 12.507,9.274C10.867,9.977 9.441,10.934 8.23,12.145C7.02,13.356 6.063,14.782 5.36,16.422C4.656,18.036 4.305,19.768 4.305,21.617Z" fill="#1B1B1B"/>
</svg>
