<svg width="36" height="28" viewBox="0 0 36 28" fill="none" xmlns="http://www.w3.org/2000/svg" xmlns:xlink="http://www.w3.org/1999/xlink">
<path d="M34.556,24.212C33.559,22.754 32.353,21.512 30.94,20.485C30.955,20.277 30.962,19.964 30.962,19.548C30.962,17.613 30.679,15.683 30.114,13.756C29.549,11.829 28.689,9.98 27.536,8.209C26.383,6.438 25.01,4.872 23.418,3.511C21.826,2.149 19.906,1.063 17.66,0.252C15.413,-0.559 13.01,-0.964 10.45,-0.964C6.418,-0.964 2.728,0.115 -0.62,2.272C-0.099,2.213 0.481,2.183 1.121,2.183C4.469,2.183 7.452,3.21 10.071,5.263C8.509,5.293 7.11,5.773 5.875,6.703C4.64,7.633 3.792,8.819 3.33,10.263C3.822,10.188 4.275,10.151 4.692,10.151C5.332,10.151 5.964,10.233 6.589,10.397C4.923,10.739 3.543,11.568 2.449,12.885C1.355,14.202 0.808,15.731 0.808,17.472L0.808,17.561C1.82,16.996 2.906,16.691 4.067,16.646C3.085,17.301 2.304,18.156 1.723,19.213C1.143,20.269 0.853,21.415 0.853,22.65C0.853,23.959 1.18,25.172 1.835,26.288C3.636,24.071 5.827,22.297 8.408,20.965C10.99,19.633 13.754,18.893 16.7,18.744C16.581,19.31 16.521,19.86 16.521,20.396C16.521,22.39 17.224,24.09 18.631,25.496C20.037,26.902 21.737,27.605 23.731,27.605C25.814,27.605 27.57,26.846 28.998,25.328C30.62,25.641 32.145,26.221 33.574,27.069C33.023,25.358 31.967,24.034 30.404,23.096C31.788,23.245 33.172,23.617 34.556,24.212Z" fill="#E1F9EC"/>
</svg>
