<svg width="32" height="32" viewBox="0 0 32 32" fill="none" xmlns="http://www.w3.org/2000/svg" xmlns:xlink="http://www.w3.org/1999/xlink">
<path d="M7.923,20.542L7.923,0.633L1.293,0.633L1.293,20.542L7.923,20.542ZM8.344,26.689C8.358,25.712 8.02,24.895 7.33,24.238C6.64,23.582 5.733,23.254 4.608,23.254L4.568,23.254C3.469,23.254 2.586,23.582 1.916,24.238C1.246,24.895 0.911,25.712 0.911,26.689C0.911,27.68 1.256,28.501 1.946,29.15C2.636,29.8 3.536,30.124 4.648,30.124C5.76,30.124 6.65,29.8 7.32,29.15C7.99,28.501 8.331,27.68 8.344,26.689ZM31.769,12.044L31.769,0.633L25.159,0.633L25.159,11.281C25.159,12.687 24.888,13.789 24.346,14.585C23.803,15.382 22.956,15.781 21.804,15.781C20.961,15.781 20.254,15.55 19.685,15.088C19.116,14.626 18.69,14.053 18.409,13.37C18.262,12.968 18.188,12.426 18.188,11.743L18.188,0.633L11.579,0.633C11.606,5.977 11.619,10.31 11.619,13.631C11.619,16.953 11.612,18.935 11.599,19.578L11.579,20.542L18.188,20.542L18.188,17.649L18.148,17.649C18.416,18.078 18.69,18.453 18.972,18.774C19.253,19.096 19.631,19.444 20.107,19.819C20.582,20.194 21.165,20.485 21.854,20.693C22.544,20.9 23.311,21.004 24.155,21.004C26.445,21.004 28.286,20.244 29.679,18.724C31.072,17.204 31.769,14.977 31.769,12.044Z" fill="#FAA634"/>
</svg>
