<svg width="38" height="26" viewBox="0 0 38 26" fill="none" xmlns="http://www.w3.org/2000/svg" xmlns:xlink="http://www.w3.org/1999/xlink">
<path d="M14.623,6.999L24.347,12.022L14.623,17.104L14.623,6.999ZM18.34,24.316C20.59,24.316 22.763,24.286 24.859,24.226C26.955,24.166 28.492,24.102 29.469,24.035L30.936,23.955C30.949,23.955 31.063,23.945 31.278,23.925C31.492,23.905 31.646,23.885 31.74,23.864C31.833,23.844 31.991,23.814 32.212,23.774C32.433,23.734 32.623,23.68 32.784,23.613C32.945,23.546 33.132,23.459 33.347,23.352C33.561,23.245 33.769,23.114 33.969,22.96C34.17,22.806 34.365,22.629 34.552,22.428C34.632,22.348 34.736,22.224 34.863,22.056C34.991,21.889 35.185,21.497 35.446,20.881C35.707,20.265 35.885,19.589 35.978,18.852C36.086,17.995 36.169,17.081 36.23,16.11C36.29,15.139 36.327,14.379 36.34,13.83L36.34,13.026L36.34,10.294C36.353,8.352 36.233,6.41 35.978,4.468C35.885,3.732 35.717,3.065 35.476,2.469C35.235,1.873 35.021,1.461 34.833,1.234L34.552,0.892C34.365,0.691 34.17,0.514 33.969,0.36C33.769,0.206 33.561,0.079 33.347,-0.022C33.132,-0.122 32.945,-0.206 32.784,-0.273C32.623,-0.34 32.433,-0.393 32.212,-0.434C31.991,-0.474 31.83,-0.504 31.73,-0.524C31.629,-0.544 31.475,-0.564 31.267,-0.584C31.06,-0.604 30.949,-0.614 30.936,-0.614C27.574,-0.869 23.376,-0.996 18.34,-0.996C15.568,-0.969 13.16,-0.926 11.118,-0.866C9.075,-0.805 7.733,-0.755 7.09,-0.715L6.106,-0.634L5.382,-0.554C4.9,-0.487 4.535,-0.42 4.288,-0.353C4.04,-0.286 3.698,-0.146 3.263,0.069C2.828,0.283 2.449,0.557 2.128,0.892C2.048,0.973 1.944,1.097 1.817,1.264C1.689,1.431 1.495,1.823 1.234,2.439C0.973,3.055 0.795,3.732 0.702,4.468C0.594,5.325 0.511,6.239 0.45,7.21C0.39,8.181 0.353,8.941 0.34,9.491L0.34,10.294L0.34,13.026C0.327,14.968 0.447,16.91 0.702,18.852C0.795,19.589 0.963,20.255 1.204,20.851C1.445,21.447 1.659,21.859 1.847,22.087L2.128,22.428C2.315,22.629 2.51,22.806 2.711,22.96C2.911,23.114 3.119,23.245 3.333,23.352C3.548,23.459 3.735,23.546 3.896,23.613C4.057,23.68 4.247,23.734 4.468,23.774C4.689,23.814 4.847,23.844 4.94,23.864C5.034,23.885 5.188,23.905 5.402,23.925C5.617,23.945 5.731,23.955 5.744,23.955C9.106,24.196 13.304,24.316 18.34,24.316Z" fill="#FAA634"/>
</svg>
