<svg width="32" height="28" viewBox="0 0 32 28" fill="none" xmlns="http://www.w3.org/2000/svg" xmlns:xlink="http://www.w3.org/1999/xlink">
<path d="M31.287,23.464C30.389,22.151 29.304,21.033 28.032,20.109C28.045,19.921 28.052,19.64 28.052,19.265C28.052,17.524 27.798,15.786 27.289,14.052C26.78,12.317 26.006,10.653 24.968,9.06C23.93,7.466 22.695,6.056 21.262,4.831C19.829,3.605 18.101,2.628 16.079,1.898C14.057,1.168 11.894,0.803 9.59,0.803C5.961,0.803 2.639,1.774 -0.374,3.716C0.094,3.662 0.617,3.635 1.193,3.635C4.206,3.635 6.891,4.56 9.248,6.408C7.842,6.435 6.583,6.866 5.472,7.703C4.36,8.541 3.597,9.609 3.182,10.908C3.623,10.841 4.032,10.807 4.407,10.807C4.983,10.807 5.552,10.881 6.115,11.028C4.615,11.336 3.372,12.083 2.388,13.268C1.404,14.453 0.911,15.83 0.911,17.397L0.911,17.477C1.822,16.968 2.8,16.693 3.844,16.653C2.961,17.243 2.257,18.013 1.735,18.964C1.213,19.914 0.952,20.946 0.952,22.057C0.952,23.236 1.246,24.327 1.836,25.332C3.456,23.336 5.428,21.739 7.752,20.541C10.075,19.342 12.563,18.676 15.215,18.542C15.108,19.051 15.054,19.546 15.054,20.028C15.054,21.823 15.687,23.353 16.953,24.619C18.218,25.884 19.749,26.517 21.543,26.517C23.418,26.517 24.999,25.834 26.284,24.468C27.744,24.749 29.117,25.272 30.403,26.035C29.907,24.495 28.956,23.303 27.55,22.459C28.795,22.593 30.041,22.928 31.287,23.464Z" fill="#FAA634"/>
</svg>
