<svg width="20" height="38" viewBox="0 0 20 38" fill="none" xmlns="http://www.w3.org/2000/svg" xmlns:xlink="http://www.w3.org/1999/xlink">
<path d="M19.007,36.196L19.007,30.303L15.503,30.303C14.223,30.303 13.36,30.035 12.913,29.499C12.467,28.963 12.244,28.16 12.244,27.088L12.244,22.87L18.784,22.87L17.913,16.262L12.244,16.262L12.244,-0.679L5.413,-0.679L5.413,16.262L-0.279,16.262L-0.279,22.87L5.413,22.87L5.413,27.736C5.413,30.504 6.187,32.65 7.735,34.176C9.282,35.701 11.343,36.463 13.918,36.463C16.105,36.463 17.802,36.374 19.007,36.196Z" fill="#E1F9EC"/>
</svg>
