<svg width="36" height="34" viewBox="0 0 36 34" fill="none" xmlns="http://www.w3.org/2000/svg" xmlns:xlink="http://www.w3.org/1999/xlink">
<path d="M7.577,22.744L7.577,0.624L0.211,0.624L0.211,22.744L7.577,22.744ZM8.046,29.575C8.061,28.488 7.685,27.581 6.919,26.851C6.153,26.122 5.144,25.758 3.894,25.758L3.85,25.758C2.629,25.758 1.647,26.122 0.903,26.851C0.159,27.581 -0.213,28.488 -0.213,29.575C-0.213,30.676 0.17,31.587 0.937,32.309C1.703,33.031 2.704,33.392 3.939,33.392C5.174,33.392 6.164,33.031 6.908,32.309C7.652,31.587 8.031,30.676 8.046,29.575ZM34.073,13.302L34.073,0.624L26.729,0.624L26.729,12.454C26.729,14.017 26.428,15.241 25.825,16.126C25.222,17.011 24.281,17.454 23.001,17.454C22.064,17.454 21.279,17.197 20.647,16.684C20.014,16.171 19.542,15.534 19.229,14.776C19.066,14.329 18.984,13.726 18.984,12.968L18.984,0.624L11.64,0.624C11.67,6.561 11.685,11.375 11.685,15.066C11.685,18.756 11.677,20.959 11.662,21.673L11.64,22.744L18.984,22.744L18.984,19.53L18.939,19.53C19.237,20.006 19.542,20.423 19.854,20.78C20.167,21.137 20.587,21.524 21.115,21.941C21.644,22.357 22.291,22.681 23.057,22.912C23.824,23.142 24.676,23.258 25.613,23.258C28.158,23.258 30.204,22.413 31.751,20.724C33.299,19.035 34.073,16.561 34.073,13.302Z" fill="#E1F9EC"/>
</svg>
