<svg width="16" height="30" viewBox="0 0 16 30" fill="none" xmlns="http://www.w3.org/2000/svg" xmlns:xlink="http://www.w3.org/1999/xlink">
<path d="M14.536,28.5L14.536,23.786L11.732,23.786C10.708,23.786 10.018,23.571 9.661,23.143C9.304,22.714 9.125,22.071 9.125,21.214L9.125,17.839L14.357,17.839L13.661,12.554L9.125,12.554L9.125,-1L3.661,-1L3.661,12.554L-0.893,12.554L-0.893,17.839L3.661,17.839L3.661,21.732C3.661,23.946 4.28,25.664 5.518,26.884C6.756,28.104 8.405,28.714 10.464,28.714C12.214,28.714 13.571,28.643 14.536,28.5Z" transform="rotate(0 6.821 13.857)" fill="#FFFFFF"/>
</svg>
