<svg width="30" height="26" viewBox="0 0 30 26" fill="none" xmlns="http://www.w3.org/2000/svg" xmlns:xlink="http://www.w3.org/1999/xlink">
<path d="M7.008,17.339L7.008,-0.357L1.115,-0.357L1.115,17.339L7.008,17.339ZM7.383,22.803C7.395,21.934 7.094,21.208 6.481,20.625C5.868,20.041 5.061,19.75 4.061,19.75L4.026,19.75C3.05,19.75 2.264,20.041 1.669,20.625C1.073,21.208 0.776,21.934 0.776,22.803C0.776,23.684 1.082,24.413 1.695,24.991C2.308,25.568 3.109,25.857 4.097,25.857C5.085,25.857 5.877,25.568 6.472,24.991C7.067,24.413 7.371,23.684 7.383,22.803ZM28.204,9.786L28.204,-0.357L22.329,-0.357L22.329,9.107C22.329,10.357 22.088,11.336 21.606,12.044C21.124,12.753 20.371,13.107 19.347,13.107C18.597,13.107 17.969,12.902 17.463,12.491C16.957,12.08 16.579,11.571 16.329,10.964C16.198,10.607 16.133,10.125 16.133,9.518L16.133,-0.357L10.258,-0.357C10.282,4.393 10.294,8.244 10.294,11.196C10.294,14.149 10.288,15.911 10.276,16.482L10.258,17.339L16.133,17.339L16.133,14.768L16.097,14.768C16.335,15.149 16.579,15.482 16.829,15.768C17.079,16.053 17.416,16.363 17.838,16.696C18.261,17.03 18.779,17.288 19.392,17.473C20.005,17.658 20.686,17.75 21.437,17.75C23.472,17.75 25.109,17.074 26.347,15.723C27.585,14.372 28.204,12.393 28.204,9.786Z" transform="rotate(0 14.49 12.75)" fill="#FFFFFF"/>
</svg>
