<svg width="94" height="78" viewBox="0 0 94 78" fill="none" xmlns="http://www.w3.org/2000/svg" xmlns:xlink="http://www.w3.org/1999/xlink">
<path d="M43.189,31.186L43.189,9.757C43.189,6.781 42.147,4.251 40.064,2.168C37.98,0.084 35.45,-0.957 32.474,-0.957L11.046,-0.957C8.069,-0.957 5.54,0.084 3.456,2.168C1.373,4.251 0.331,6.781 0.331,9.757L0.331,49.043C0.331,52.912 1.085,56.604 2.591,60.12C4.098,63.635 6.135,66.677 8.702,69.244C11.269,71.811 14.31,73.847 17.826,75.354C21.341,76.861 25.034,77.614 28.903,77.614L32.474,77.614C33.442,77.614 34.279,77.261 34.985,76.554C35.692,75.847 36.046,75.01 36.046,74.043L36.046,66.9C36.046,65.933 35.692,65.096 34.985,64.389C34.279,63.682 33.442,63.329 32.474,63.329L28.903,63.329C24.959,63.329 21.593,61.933 18.802,59.143C16.012,56.353 14.617,52.986 14.617,49.043L14.617,47.257C14.617,45.769 15.138,44.504 16.18,43.462C17.221,42.421 18.486,41.9 19.974,41.9L32.474,41.9C35.45,41.9 37.98,40.858 40.064,38.775C42.147,36.692 43.189,34.162 43.189,31.186ZM93.189,31.186L93.189,9.757C93.189,6.781 92.147,4.251 90.064,2.168C87.98,0.084 85.45,-0.957 82.474,-0.957L61.046,-0.957C58.069,-0.957 55.54,0.084 53.456,2.168C51.373,4.251 50.331,6.781 50.331,9.757L50.331,49.043C50.331,52.912 51.085,56.604 52.591,60.12C54.098,63.635 56.135,66.677 58.702,69.244C61.269,71.811 64.31,73.847 67.826,75.354C71.341,76.861 75.034,77.614 78.903,77.614L82.474,77.614C83.442,77.614 84.279,77.261 84.985,76.554C85.692,75.847 86.046,75.01 86.046,74.043L86.046,66.9C86.046,65.933 85.692,65.096 84.985,64.389C84.279,63.682 83.442,63.329 82.474,63.329L78.903,63.329C74.959,63.329 71.593,61.933 68.802,59.143C66.012,56.353 64.617,52.986 64.617,49.043L64.617,47.257C64.617,45.769 65.138,44.504 66.18,43.462C67.221,42.421 68.486,41.9 69.974,41.9L82.474,41.9C85.45,41.9 87.98,40.858 90.064,38.775C92.147,36.692 93.189,34.162 93.189,31.186Z" fill="#B4D2BA"/>
</svg>
